<svg width="24" height="24" fill="none" xmlns="http://www.w3.org/2000/svg"><rect width="24" height="24" rx="4" fill="#005FF9"/><path d="M14.707 12A2.71 2.71 0 0112 14.707 2.71 2.71 0 019.293 12 2.71 2.71 0 0112 9.293 2.71 2.71 0 0114.707 12zM12 3c-4.963 0-9 4.037-9 9s4.037 9 9 9a8.948 8.948 0 005.07-1.565l.025-.018-1.212-1.41-.02.013A7.12 7.12 0 0112 19.155c-3.945 0-7.155-3.21-7.155-7.155 0-3.945 3.21-7.155 7.155-7.155 3.945 0 7.155 3.21 7.155 7.155 0 .511-.057 1.029-.168 1.538-.227.929-.877 1.213-1.365 1.175-.491-.04-1.066-.39-1.07-1.245V12A4.557 4.557 0 0012 7.448 4.557 4.557 0 007.448 12 4.557 4.557 0 0012 16.552c1.22 0 2.363-.476 3.225-1.343a2.925 2.925 0 002.49 1.353c.656 0 1.304-.219 1.828-.616.539-.41.942-1.002 1.165-1.713.035-.115.1-.378.1-.38l.002-.01c.132-.57.19-1.14.19-1.843 0-4.963-4.037-9-9-9z" fill="#FF9E00"/></svg>