<svg width="24" height="24" fill="none" xmlns="http://www.w3.org/2000/svg"><path d="M12.001 4.328a2.353 2.353 0 012.35 2.35 2.353 2.353 0 01-2.35 2.35 2.353 2.353 0 01-2.35-2.35A2.353 2.353 0 0112 4.328zm0 8.026a5.683 5.683 0 005.678-5.676A5.684 5.684 0 0012.001 1a5.684 5.684 0 00-5.678 5.678 5.683 5.683 0 005.678 5.676zm2.297 4.631a10.629 10.629 0 003.297-1.365 1.663 1.663 0 00-1.772-2.816 7.21 7.21 0 01-7.644 0 1.662 1.662 0 00-2.508 1.778c.098.43.363.803.736 1.038a10.64 10.64 0 003.296 1.365L6.53 20.16a1.664 1.664 0 002.353 2.352l3.119-3.119 3.12 3.12a1.66 1.66 0 002.712-.54 1.662 1.662 0 00-.361-1.812l-3.174-3.176z" fill="#EB722E"/></svg>