<svg width="24" height="24" fill="none" xmlns="http://www.w3.org/2000/svg"><path d="M7.823 21c8.824 0 13.65-7.31 13.65-13.65 0-.208 0-.414-.014-.62a9.761 9.761 0 002.394-2.484 9.576 9.576 0 01-2.756.755 4.814 4.814 0 002.11-2.653 9.614 9.614 0 01-3.047 1.164 4.802 4.802 0 00-8.176 4.376 13.62 13.62 0 01-9.887-5.013A4.801 4.801 0 003.582 9.28a4.762 4.762 0 01-2.177-.6v.06a4.8 4.8 0 003.849 4.704 4.79 4.79 0 01-2.167.082 4.803 4.803 0 004.483 3.332 9.626 9.626 0 01-7.1 1.988 13.583 13.583 0 007.353 2.151" fill="#1DA1F2"/></svg>