<svg width="24" height="24" viewBox="0 0 45 27" xmlns="http://www.w3.org/2000/svg"><path clip-rule="evenodd" d="m43.3918 1.87367c.3294-1.056944 0-1.8256273-1.4589-1.8256273h-4.8475c-1.2236 0-1.7884.6725983-2.1178 1.3932373 0 0-2.4943 6.14947-5.977 10.13702-1.1295 1.153-1.6472 1.5374-2.259 1.5374-.3294 0-.753-.3844-.753-1.4413v-9.84878c0-1.249108-.3765-1.82562-1.4119-1.82562h-7.6241c-.753 0-1.2237.576512-1.2237 1.15302 0 1.20107 1.7414 1.48933 1.9296 4.85232v7.30246c0 1.5854-.2824 1.8737-.8942 1.8737-1.6472 0-5.6475-6.19751-8.0477-13.25979-.47063-1.39324-.94126-1.92171-2.16489-1.92171h-4.89452c-1.411877 0-1.64719.672598-1.64719 1.39324 0 1.29715 1.64719 7.83096 7.67122 16.47866 4.00028 5.9092 9.69488 9.0801 14.82478 9.0801 3.1061 0 3.4826-.7207 3.4826-1.9218v-4.4679c0-1.4413.2824-1.6815 1.2707-1.6815.7059 0 1.9766.3843 4.8475 3.2188 3.2943 3.363 3.8591 4.9004 5.6945 4.9004h4.8475c1.4119 0 2.0708-.7206 1.6942-2.1139-.4235-1.3932-2.0236-3.411-4.0944-5.8131-1.1295-1.3452-2.8238-2.8346-3.3415-3.5552-.7059-.9609-.5176-1.3452 0-2.21-.047 0 5.8829-8.55157 6.4947-11.43413z" fill="#4680c2" fill-rule="evenodd"/></svg>